HIERARCHY
ROOT Pelvis
{
	OFFSET -0.217368 -24.078917 2.858379
	CHANNELS 6 Xposition Yposition Zposition Zrotation Yrotation Xrotation 
	JOINT Left_hip
	{
		OFFSET 5.858135 -8.228005 -1.766408
		CHANNELS 3 Zrotation Yrotation Xrotation
		JOINT Left_knee
		{
			OFFSET 4.345143 -38.646942 0.803700
			CHANNELS 3 Zrotation Yrotation Xrotation
			JOINT Left_ankle
			{
				OFFSET -1.479033 -42.687447 -3.742800
				CHANNELS 3 Zrotation Yrotation Xrotation
				JOINT Left_foot
				{
					OFFSET 4.105436 -6.028605 12.204244
					CHANNELS 3 Zrotation Yrotation Xrotation
					End Site
					{
						OFFSET 0.000000 0.000000 0.000000
					}
				}
			}
		}
	}
	JOINT Right_hip
	{
		OFFSET -6.030973 -9.051328 -1.354253
		CHANNELS 3 Zrotation Yrotation Xrotation
		JOINT Right_knee
		{
			OFFSET -4.325663 -38.368790 -0.484304
			CHANNELS 3 Zrotation Yrotation Xrotation
			JOINT Right_ankle
			{
				OFFSET 1.905555 -42.004566 -3.456167
				CHANNELS 3 Zrotation Yrotation Xrotation
				JOINT Right_foot
				{
					OFFSET -3.483987 -6.210554 13.032330
					CHANNELS 3 Zrotation Yrotation Xrotation
					End Site
					{
						OFFSET 0.000000 0.000000 0.000000
					}
				}
			}
		}
	}
	JOINT Spine1
	{
		OFFSET 0.443945 12.440353 -3.838522
		CHANNELS 3 Zrotation Yrotation Xrotation
		JOINT Spine2
		{
			OFFSET 0.448844 13.795640 2.682033
			CHANNELS 3 Zrotation Yrotation Xrotation
			JOINT Spine3
			{
				OFFSET -0.226460 5.603239 0.285504
				CHANNELS 3 Zrotation Yrotation Xrotation
				JOINT Neck
				{
					OFFSET -1.339018 21.163553 -3.346758
					CHANNELS 3 Zrotation Yrotation Xrotation
					JOINT Head
					{
						OFFSET 1.011321 8.893734 5.040987
						CHANNELS 3 Zrotation Yrotation Xrotation
						End Site
						{
							OFFSET 0.000000 0.000000 0.000000
						}
					}
				}
				JOINT Left_collar
				{
					OFFSET 7.170247 11.399971 -1.889817
					CHANNELS 3 Zrotation Yrotation Xrotation
					JOINT Left_shoulder
					{
						OFFSET 12.292140 4.520507 -1.904600
						CHANNELS 3 Zrotation Yrotation Xrotation
						JOINT Left_elbow
						{
							OFFSET 25.533188 -1.564902 -2.294648
							CHANNELS 3 Zrotation Yrotation Xrotation
							JOINT Left_wrist
							{
								OFFSET 26.570929 1.269810 -0.737473
								CHANNELS 3 Zrotation Yrotation Xrotation
								JOINT Left_palm
								{
									OFFSET 8.669054 -1.063602 -1.559429
									CHANNELS 3 Zrotation Yrotation Xrotation
									End Site
									{
										OFFSET 0.000000 0.000000 0.000000
									}
								}
							}
						}
					}
				}
				JOINT Right_collar
				{
					OFFSET -8.295364 11.247234 -2.370738
					CHANNELS 3 Zrotation Yrotation Xrotation
					JOINT Right_shoulder
					{
						OFFSET -11.322830 4.685326 -0.847207
						CHANNELS 3 Zrotation Yrotation Xrotation
						JOINT Right_elbow
						{
							OFFSET -26.012751 -1.436928 -3.126872
							CHANNELS 3 Zrotation Yrotation Xrotation
							JOINT Right_wrist
							{
								OFFSET -26.910841 0.679372 -0.602677
								CHANNELS 3 Zrotation Yrotation Xrotation
								JOINT Right_palm
								{
									OFFSET -8.875370 -0.865157 -1.010708
									CHANNELS 3 Zrotation Yrotation Xrotation
									End Site
									{
										OFFSET 0.000000 0.000000 0.000000
									}
								}
							}
						}
					}
				}
			}
		}
	}
}
MOTION
Frames: 9
Frame Time: 0.016667
-0.217368 -16.394192 2.858379 0.027357 0.379960 93.165844 21.071957 0.181880 -4.657207 -18.046118 3.043148 8.315054 8.832062 18.893008 20.742261 0.000000 0.000000 0.000000 -21.464873 0.136700 -4.088763 20.015299 -2.373033 1.747897 -15.659352 -31.954952 15.057625 0.000000 0.000000 0.000000 0.976547 -0.203225 3.964704 1.408699 0.409205 -27.348387 0.949018 1.993589 21.160704 -5.864703 4.560250 -19.185511 0.000000 0.000000 0.000000 7.400658 5.617363 -0.775323 -0.244893 -20.949401 -1.045613 98.026935 -26.065339 -27.281920 0.000000 0.000000 0.000000 0.000000 0.000000 0.000000 -7.117076 -4.009552 -0.426746 6.203787 19.439813 -0.494867 -103.202121 29.566445 -32.111849 0.000000 0.000000 0.000000 0.000000 0.000000 0.000000 
-0.247859 -15.563665 2.903063 1.982936 1.231667 94.704093 20.627749 0.404714 -7.298472 -18.569909 3.242509 9.076775 9.010145 19.045920 17.700320 0.000000 0.000000 0.000000 -21.597191 -0.180527 -7.631618 25.065756 -3.490819 4.399005 -16.657730 -35.039367 9.413003 0.000000 0.000000 0.000000 3.212906 -0.056557 0.441505 -0.558203 0.826094 -27.347139 0.268525 -0.758526 23.038095 -6.651074 4.942312 -23.244520 0.000000 0.000000 0.000000 6.211613 7.901460 -1.575582 0.251130 -23.691920 -1.238786 89.348667 -35.757107 -32.611503 0.000000 0.000000 0.000000 0.000000 0.000000 0.000000 -7.881456 -7.447881 -1.234145 4.408930 17.463645 -0.624072 -96.260943 35.339844 -34.733360 0.000000 0.000000 0.000000 0.000000 0.000000 0.000000 
-0.222029 -14.819955 2.882103 3.918612 2.478203 91.665074 17.925305 0.258175 -7.213142 -12.873700 2.466962 12.995787 12.573241 23.698710 19.595850 0.000000 0.000000 0.000000 -19.739313 -0.047477 -6.923839 23.273931 -4.042001 9.219860 -14.470778 -31.999030 6.678613 0.000000 0.000000 0.000000 3.122592 -0.196163 2.509261 1.143480 0.325940 -23.338107 -0.795701 -0.397979 18.509006 -4.928143 4.027211 -16.257967 0.000000 0.000000 0.000000 7.739820 3.776418 -0.246131 -2.043466 -24.430729 -1.019706 93.022278 -30.787737 -29.735371 0.000000 0.000000 0.000000 0.000000 0.000000 0.000000 -5.679371 -6.471790 -1.310734 6.838490 19.756569 -0.436419 -101.591240 33.159360 -35.399523 0.000000 0.000000 0.000000 0.000000 0.000000 0.000000 
-0.203341 -14.520721 2.877225 3.203586 3.643215 91.930355 19.309987 0.372943 -7.774688 -13.038745 2.577204 13.856661 13.905687 25.733238 15.877070 0.000000 0.000000 0.000000 -16.826549 0.052587 -7.120898 20.596971 -3.145943 6.606012 -14.054942 -31.741438 4.659942 0.000000 0.000000 0.000000 4.669717 -0.185917 1.811551 1.279730 0.298354 -23.512488 0.468852 -0.599819 20.316061 -6.145214 4.721407 -17.604624 0.000000 0.000000 0.000000 5.112419 5.259854 -1.009174 -4.088701 -24.376571 -0.786797 94.653733 -29.194633 -28.941832 0.000000 0.000000 0.000000 0.000000 0.000000 0.000000 -7.176616 -6.654180 -1.132861 6.310506 19.222688 -0.485958 -104.025534 28.926176 -31.792654 0.000000 0.000000 0.000000 0.000000 0.000000 0.000000 
-0.210507 -14.396756 2.819128 3.391476 2.954065 91.084064 20.272426 0.430575 -7.813695 -15.173197 3.201133 15.005878 11.484540 22.460442 15.334770 0.000000 0.000000 0.000000 -16.837018 0.079721 -6.538696 21.089310 -3.135403 5.982536 -15.920955 -37.571820 -1.613326 0.000000 0.000000 0.000000 4.386345 -0.263068 2.872373 0.577495 0.494539 -24.269352 0.646631 -1.281279 21.168962 -7.829919 5.665444 -17.618747 0.000000 0.000000 0.000000 5.072240 4.880690 -0.906854 -4.757875 -24.246131 -0.710065 94.840703 -28.606005 -28.434739 0.000000 0.000000 0.000000 0.000000 0.000000 0.000000 -8.694763 -4.063127 -0.238594 6.060006 18.450490 -0.507723 -100.274808 24.550308 -24.884065 0.000000 0.000000 0.000000 0.000000 0.000000 0.000000 
-0.196592 -14.480476 2.797711 3.029326 2.597956 90.793038 20.041431 0.343613 -6.936302 -15.935985 3.093619 12.346108 9.568017 19.839627 21.001055 0.000000 0.000000 0.000000 -17.863654 0.071639 -6.059621 23.137437 -3.480607 6.052496 -16.844231 -37.291285 3.717088 0.000000 0.000000 0.000000 3.871446 -0.201165 2.273470 -0.295800 0.652830 -21.903209 1.424891 -1.868352 19.543777 -7.926575 5.723792 -17.456954 0.000000 0.000000 0.000000 5.236199 3.684383 -0.544244 -3.813866 -23.876104 -0.808872 94.107237 -27.836106 -27.314196 0.000000 0.000000 0.000000 0.000000 0.000000 0.000000 -9.540135 -2.261082 0.317604 6.334042 17.572715 -0.488287 -96.744379 21.794411 -20.476454 0.000000 0.000000 0.000000 0.000000 0.000000 0.000000 
-0.195017 -14.039086 2.774561 2.577717 1.586842 90.997077 18.636567 0.253589 -6.640520 -15.254249 2.767431 10.670792 9.352810 19.604839 23.550373 0.000000 0.000000 0.000000 -17.233638 0.059474 -6.670858 19.336486 -2.874798 6.157989 -17.303049 -36.780695 7.412429 0.000000 0.000000 0.000000 3.249682 -0.238053 3.059219 0.340833 0.520354 -23.144242 0.635401 -0.645032 20.183871 -7.610110 5.541030 -17.676183 0.000000 0.000000 0.000000 5.210426 2.808687 -0.298527 -2.551882 -23.625493 -0.937989 93.600821 -26.383604 -25.635902 0.000000 0.000000 0.000000 0.000000 0.000000 0.000000 -10.219108 -1.895346 0.481681 6.306107 18.983018 -0.486913 -97.425341 18.329623 -16.966833 0.000000 0.000000 0.000000 0.000000 0.000000 0.000000 
-0.171792 -13.829147 2.751648 2.404127 1.531370 91.147995 18.324958 0.205831 -6.157586 -13.823898 2.400963 9.890928 9.600942 19.900789 22.955965 0.000000 0.000000 0.000000 -17.367764 0.026064 -7.222700 18.800855 -2.982030 7.667639 -16.300908 -34.873264 7.974128 0.000000 0.000000 0.000000 3.570187 -0.217637 2.619911 0.235796 0.524306 -22.307190 0.373770 0.109941 19.506751 -6.696243 5.032293 -17.446714 0.000000 0.000000 0.000000 5.590634 2.229925 -0.089744 -2.051616 -22.936601 -0.967274 93.437468 -25.538732 -24.726168 0.000000 0.000000 0.000000 0.000000 0.000000 0.000000 -10.499203 -1.692641 0.560452 5.552401 19.573840 -0.553086 -97.465724 15.556969 -13.978871 0.000000 0.000000 0.000000 0.000000 0.000000 0.000000 
-0.157751 -13.765257 2.721486 1.673773 1.730638 91.059029 18.472403 0.102961 -4.605004 -13.075667 2.108223 8.169591 9.115626 19.316025 23.553665 0.000000 0.000000 0.000000 -16.669662 0.094444 -6.342042 17.870853 -2.595152 5.819627 -16.870472 -35.695198 8.457216 0.000000 0.000000 0.000000 4.101784 -0.217113 2.396980 0.316299 0.515259 -22.734650 0.427146 0.916471 19.923564 -6.152891 4.721537 -18.336197 0.000000 0.000000 0.000000 5.792402 1.592544 0.111721 -2.818644 -23.429496 -0.904410 94.184688 -27.395080 -26.906471 0.000000 0.000000 0.000000 0.000000 0.000000 0.000000 -11.191665 -0.423674 0.930590 3.869146 20.926287 -0.731179 -97.359192 14.145379 -12.429873 0.000000 0.000000 0.000000 0.000000 0.000000 0.000000 
